<mxfile host="app.diagrams.net" modified="2024-03-18T18:21:24.261Z" agent="Mozilla/5.0 (Windows NT 10.0; Win64; x64) AppleWebKit/537.36 (KHTML, like Gecko) Chrome/122.0.0.0 Safari/537.36 Edg/122.0.0.0" etag="WJotGnam87d2hj8xKNx_" version="23.1.6" type="github">
  <diagram name="Page-1" id="wWNTJLllPXBl38Xm8qPU">
    <mxGraphModel dx="948" dy="521" grid="1" gridSize="10" guides="1" tooltips="1" connect="1" arrows="1" fold="1" page="1" pageScale="1" pageWidth="850" pageHeight="1100" math="0" shadow="0">
      <root>
        <mxCell id="0" />
        <mxCell id="1" parent="0" />
        <mxCell id="H-fEmLfnyaf5FeVdEXP2-1" value="" style="swimlane;childLayout=stackLayout;resizeParent=1;resizeParentMax=0;startSize=20;html=1;" vertex="1" parent="1">
          <mxGeometry x="130" y="50" width="610" height="510" as="geometry">
            <mxRectangle x="200" y="40" width="50" height="40" as="alternateBounds" />
          </mxGeometry>
        </mxCell>
        <mxCell id="H-fEmLfnyaf5FeVdEXP2-2" value="Người dùng" style="swimlane;startSize=20;html=1;" vertex="1" parent="H-fEmLfnyaf5FeVdEXP2-1">
          <mxGeometry y="20" width="300" height="490" as="geometry">
            <mxRectangle y="20" width="40" height="460" as="alternateBounds" />
          </mxGeometry>
        </mxCell>
        <mxCell id="H-fEmLfnyaf5FeVdEXP2-3" value="Hệ thống" style="swimlane;startSize=20;html=1;" vertex="1" parent="H-fEmLfnyaf5FeVdEXP2-1">
          <mxGeometry x="300" y="20" width="310" height="490" as="geometry" />
        </mxCell>
        <mxCell id="H-fEmLfnyaf5FeVdEXP2-4" value="" style="edgeStyle=orthogonalEdgeStyle;rounded=0;orthogonalLoop=1;jettySize=auto;html=1;entryX=0.5;entryY=0;entryDx=0;entryDy=0;" edge="1" parent="H-fEmLfnyaf5FeVdEXP2-3" source="H-fEmLfnyaf5FeVdEXP2-11" target="H-fEmLfnyaf5FeVdEXP2-13">
          <mxGeometry relative="1" as="geometry">
            <mxPoint x="230" y="300" as="targetPoint" />
          </mxGeometry>
        </mxCell>
        <mxCell id="H-fEmLfnyaf5FeVdEXP2-5" style="edgeStyle=orthogonalEdgeStyle;rounded=0;orthogonalLoop=1;jettySize=auto;html=1;exitX=0;exitY=0.5;exitDx=0;exitDy=0;entryX=0.5;entryY=1;entryDx=0;entryDy=0;" edge="1" parent="H-fEmLfnyaf5FeVdEXP2-3" source="H-fEmLfnyaf5FeVdEXP2-13" target="H-fEmLfnyaf5FeVdEXP2-11">
          <mxGeometry relative="1" as="geometry" />
        </mxCell>
        <mxCell id="H-fEmLfnyaf5FeVdEXP2-6" value="" style="edgeStyle=orthogonalEdgeStyle;rounded=0;orthogonalLoop=1;jettySize=auto;html=1;" edge="1" parent="H-fEmLfnyaf5FeVdEXP2-3" source="H-fEmLfnyaf5FeVdEXP2-10" target="H-fEmLfnyaf5FeVdEXP2-18">
          <mxGeometry relative="1" as="geometry" />
        </mxCell>
        <mxCell id="H-fEmLfnyaf5FeVdEXP2-7" style="edgeStyle=orthogonalEdgeStyle;rounded=0;orthogonalLoop=1;jettySize=auto;html=1;exitX=0.5;exitY=1;exitDx=0;exitDy=0;" edge="1" parent="H-fEmLfnyaf5FeVdEXP2-3" source="H-fEmLfnyaf5FeVdEXP2-18" target="H-fEmLfnyaf5FeVdEXP2-11">
          <mxGeometry relative="1" as="geometry" />
        </mxCell>
        <mxCell id="H-fEmLfnyaf5FeVdEXP2-8" value="" style="ellipse;html=1;shape=startState;fillColor=#000000;strokeColor=#ff0000;" vertex="1" parent="H-fEmLfnyaf5FeVdEXP2-3">
          <mxGeometry x="-205" y="31" width="40" height="40" as="geometry" />
        </mxCell>
        <mxCell id="H-fEmLfnyaf5FeVdEXP2-9" value="" style="edgeStyle=orthogonalEdgeStyle;html=1;verticalAlign=bottom;endArrow=open;endSize=8;strokeColor=#ff0000;rounded=0;entryX=0.5;entryY=0;entryDx=0;entryDy=0;" edge="1" parent="H-fEmLfnyaf5FeVdEXP2-3" source="H-fEmLfnyaf5FeVdEXP2-8" target="H-fEmLfnyaf5FeVdEXP2-10">
          <mxGeometry relative="1" as="geometry">
            <mxPoint x="-185" y="121" as="targetPoint" />
          </mxGeometry>
        </mxCell>
        <mxCell id="H-fEmLfnyaf5FeVdEXP2-10" value="Chọn đổi mật khẩu" style="rounded=1;whiteSpace=wrap;html=1;arcSize=40;fontColor=#000000;fillColor=#ffffc0;strokeColor=#ff0000;" vertex="1" parent="H-fEmLfnyaf5FeVdEXP2-3">
          <mxGeometry x="-245" y="111" width="120" height="40" as="geometry" />
        </mxCell>
        <mxCell id="H-fEmLfnyaf5FeVdEXP2-11" value="Nhập mật khẩu cũ và mới" style="rounded=1;whiteSpace=wrap;html=1;arcSize=40;fontColor=#000000;fillColor=#ffffc0;strokeColor=#ff0000;" vertex="1" parent="H-fEmLfnyaf5FeVdEXP2-3">
          <mxGeometry x="-257.5" y="221" width="145" height="40" as="geometry" />
        </mxCell>
        <mxCell id="H-fEmLfnyaf5FeVdEXP2-12" value="" style="edgeStyle=orthogonalEdgeStyle;rounded=0;orthogonalLoop=1;jettySize=auto;html=1;" edge="1" parent="H-fEmLfnyaf5FeVdEXP2-3" source="H-fEmLfnyaf5FeVdEXP2-13" target="H-fEmLfnyaf5FeVdEXP2-15">
          <mxGeometry relative="1" as="geometry" />
        </mxCell>
        <mxCell id="H-fEmLfnyaf5FeVdEXP2-13" value="Kiểm tra mật &lt;br&gt;khẩu hợp lệ" style="rhombus;whiteSpace=wrap;html=1;fillColor=#ffffc0;strokeColor=#ff0000;fontColor=#000000;rounded=1;arcSize=0;" vertex="1" parent="H-fEmLfnyaf5FeVdEXP2-3">
          <mxGeometry x="87.18999999999998" y="261" width="135.62" height="59" as="geometry" />
        </mxCell>
        <mxCell id="H-fEmLfnyaf5FeVdEXP2-14" style="edgeStyle=orthogonalEdgeStyle;rounded=0;orthogonalLoop=1;jettySize=auto;html=1;exitX=0.5;exitY=1;exitDx=0;exitDy=0;entryX=0.5;entryY=0;entryDx=0;entryDy=0;" edge="1" parent="H-fEmLfnyaf5FeVdEXP2-3" source="H-fEmLfnyaf5FeVdEXP2-15" target="H-fEmLfnyaf5FeVdEXP2-16">
          <mxGeometry relative="1" as="geometry" />
        </mxCell>
        <mxCell id="H-fEmLfnyaf5FeVdEXP2-15" value="Xác nhận đổi mật khẩu thành công" style="whiteSpace=wrap;html=1;fillColor=#ffffc0;strokeColor=#ff0000;fontColor=#000000;rounded=1;arcSize=40;" vertex="1" parent="H-fEmLfnyaf5FeVdEXP2-3">
          <mxGeometry x="87.18999999999998" y="360" width="135" height="40" as="geometry" />
        </mxCell>
        <mxCell id="H-fEmLfnyaf5FeVdEXP2-16" value="" style="ellipse;html=1;shape=endState;fillColor=#000000;strokeColor=#ff0000;" vertex="1" parent="H-fEmLfnyaf5FeVdEXP2-3">
          <mxGeometry x="139.69" y="440" width="30" height="30" as="geometry" />
        </mxCell>
        <mxCell id="H-fEmLfnyaf5FeVdEXP2-17" value="Không hợp lệ" style="text;html=1;align=center;verticalAlign=middle;resizable=0;points=[];autosize=1;strokeColor=none;fillColor=none;" vertex="1" parent="H-fEmLfnyaf5FeVdEXP2-3">
          <mxGeometry x="1.4210854715202004e-14" y="261" width="100" height="30" as="geometry" />
        </mxCell>
        <mxCell id="H-fEmLfnyaf5FeVdEXP2-18" value="Hiển thị màn hình đổi mật khẩu" style="rounded=1;whiteSpace=wrap;html=1;arcSize=40;fontColor=#000000;fillColor=#ffffc0;strokeColor=#ff0000;" vertex="1" parent="H-fEmLfnyaf5FeVdEXP2-3">
          <mxGeometry x="97.8" y="111" width="120" height="40" as="geometry" />
        </mxCell>
        <mxCell id="H-fEmLfnyaf5FeVdEXP2-19" value="Hợp lệ" style="text;html=1;align=center;verticalAlign=middle;resizable=0;points=[];autosize=1;strokeColor=none;fillColor=none;" vertex="1" parent="H-fEmLfnyaf5FeVdEXP2-3">
          <mxGeometry x="97.8" y="330" width="60" height="30" as="geometry" />
        </mxCell>
      </root>
    </mxGraphModel>
  </diagram>
</mxfile>
